<?xml version="1.0" encoding="iso-8859-1"?>
<!-- Generator: Adobe Illustrator 19.0.0, SVG Export Plug-In . SVG Version: 6.00 Build 0)  -->
<svg xmlns="http://www.w3.org/2000/svg" xmlns:xlink="http://www.w3.org/1999/xlink" version="1.1" id="Capa_1" x="0px" y="0px" viewBox="0 0 512 512" style="enable-background:new 0 0 512 512;" xml:space="preserve">
<g>
	<g>
		<g>
			<path d="M32,464V48c0-8.837,7.163-16,16-16h240v64c0,17.673,14.327,32,32,32h64v48h32v-64c0.025-4.253-1.645-8.341-4.64-11.36     l-96-96C312.341,1.645,308.253-0.024,304,0H48C21.49,0,0,21.491,0,48v416c0,26.51,21.49,48,48,48h112v-32H48     C39.164,480,32,472.837,32,464z"/>
			<path d="M223.744,268.223C215.01,260.41,203.719,256.063,192,256h-64v32h64c8.837,0,16,7.163,16,16s-7.163,16-16,16h-64v32h64     c8.837,0,16,7.163,16,16s-7.163,16-16,16h-64v32h64c26.509-0.142,47.885-21.747,47.743-48.256     c-0.063-11.719-4.41-23.01-12.223-31.744C245.194,316.241,243.503,285.897,223.744,268.223z"/>
			<path d="M336,256h-64c-8.837,0-16,7.163-16,16v128c0,8.837,7.163,16,16,16h64c17.673,0,32-14.327,32-32v-96     C368,270.327,353.673,256,336,256z M336,384h-48v-96h48V384z"/>
			<path d="M464,320h-32c-8.837,0-16-7.163-16-16s7.163-16,16-16h32c8.837,0,16,7.163,16,16h32c0-26.51-21.49-48-48-48h-32     c-26.51,0-48,21.49-48,48c0,26.51,21.49,48,48,48h32c8.837,0,16,7.163,16,16s-7.163,16-16,16h-32c-8.837,0-16-7.163-16-16h-32     c0,26.51,21.49,48,48,48h32c26.51,0,48-21.49,48-48C512,341.491,490.51,320,464,320z"/>
		</g>
	</g>
</g>
<g>
</g>
<g>
</g>
<g>
</g>
<g>
</g>
<g>
</g>
<g>
</g>
<g>
</g>
<g>
</g>
<g>
</g>
<g>
</g>
<g>
</g>
<g>
</g>
<g>
</g>
<g>
</g>
<g>
</g>
</svg>
