<?xml version="1.0" encoding="iso-8859-1"?>
<!-- Generator: Adobe Illustrator 19.0.0, SVG Export Plug-In . SVG Version: 6.00 Build 0)  -->
<svg xmlns="http://www.w3.org/2000/svg" xmlns:xlink="http://www.w3.org/1999/xlink" version="1.1" id="Capa_1" x="0px" y="0px" viewBox="0 0 512 512" style="enable-background:new 0 0 512 512;" xml:space="preserve">
<g>
	<g>
		<g>
			<path d="M33.76,464V48c0-8.837,7.163-16,16-16h240v64c0,17.673,14.327,32,32,32h64v48h32v-64c0.025-4.253-1.645-8.341-4.64-11.36     l-96-96c-3.019-2.995-7.107-4.665-11.36-4.64h-256c-26.51,0-48,21.49-48,48v416c0,26.51,21.49,48,48,48h112v-32h-112     C40.924,480,33.76,472.837,33.76,464z"/>
			<path d="M209.76,256h-64c-17.673,0-32,14.327-32,32v128h32v-48h64v48h32V288C241.76,270.327,227.433,256,209.76,256z M209.76,336     h-64v-48h64V336z"/>
			<path d="M337.76,256h-64c-8.837,0-16,7.163-16,16v144h32v-48h48c17.673,0,32-14.327,32-32v-48     C369.76,270.327,355.433,256,337.76,256z M337.76,336h-48v-48h48V336z"/>
			<polygon points="455.2,321.12 493.12,283.36 470.4,260.64 417.76,313.44 417.76,256 385.76,256 385.76,416 417.76,416      417.76,358.56 432.48,344 485.28,410.08 510.24,390.08    "/>
		</g>
	</g>
</g>
<g>
</g>
<g>
</g>
<g>
</g>
<g>
</g>
<g>
</g>
<g>
</g>
<g>
</g>
<g>
</g>
<g>
</g>
<g>
</g>
<g>
</g>
<g>
</g>
<g>
</g>
<g>
</g>
<g>
</g>
</svg>
