<?xml version="1.0" encoding="iso-8859-1"?>
<!-- Generator: Adobe Illustrator 19.0.0, SVG Export Plug-In . SVG Version: 6.00 Build 0)  -->
<svg xmlns="http://www.w3.org/2000/svg" xmlns:xlink="http://www.w3.org/1999/xlink" version="1.1" id="Capa_1" x="0px" y="0px" viewBox="0 0 512 512" style="enable-background:new 0 0 512 512;" xml:space="preserve">
<g>
	<g>
		<g>
			<path d="M32,464V48c0-8.837,7.163-16,16-16h240v64c0,17.673,14.327,32,32,32h64v48h32v-64c0.025-4.253-1.645-8.341-4.64-11.36     l-96-96C312.341,1.645,308.253-0.024,304,0H48C21.49,0,0,21.491,0,48v416c0,26.51,21.49,48,48,48h112v-32H48     C39.164,480,32,472.837,32,464z"/>
			<path d="M336,256h-64c-17.673,0-32,14.327-32,32v128h32v-48h64v48h32V288C368,270.327,353.673,256,336,256z M336,336h-64v-48h64     V336z"/>
			<path d="M192,256h-80c-8.837,0-16,7.163-16,16v144h32v-64h9.44l59.36,59.36l22.56-22.56l-36.8-36.8H192c17.673,0,32-14.327,32-32     v-32C224,270.327,209.673,256,192,256z M192,320h-64v-32h64V320z"/>
			<path d="M480,256v105.44l-20.64-20.64c-6.241-6.204-16.319-6.204-22.56,0L416,361.44V256h-32v144     c-0.051,8.836,7.07,16.041,15.907,16.093c4.299,0.025,8.426-1.681,11.453-4.733l36.64-36.8l36.64,36.64     c6.223,6.274,16.353,6.316,22.627,0.093c3.013-2.988,4.715-7.05,4.733-11.293V256H480z"/>
		</g>
	</g>
</g>
<g>
</g>
<g>
</g>
<g>
</g>
<g>
</g>
<g>
</g>
<g>
</g>
<g>
</g>
<g>
</g>
<g>
</g>
<g>
</g>
<g>
</g>
<g>
</g>
<g>
</g>
<g>
</g>
<g>
</g>
</svg>
