<?xml version="1.0" encoding="iso-8859-1"?>
<!-- Generator: Adobe Illustrator 19.0.0, SVG Export Plug-In . SVG Version: 6.00 Build 0)  -->
<svg xmlns="http://www.w3.org/2000/svg" xmlns:xlink="http://www.w3.org/1999/xlink" version="1.1" id="Capa_1" x="0px" y="0px" viewBox="0 0 512 512" style="enable-background:new 0 0 512 512;" xml:space="preserve">
<g>
	<g>
		<g>
			<path d="M384,176h32v-64c0.025-4.253-1.645-8.341-4.64-11.36l-96-96C312.341,1.645,308.253-0.024,304,0H48C21.49,0,0,21.491,0,48     v416c0,26.51,21.49,48,48,48h112v-32H48c-8.837,0-16-7.163-16-16V48c0-8.837,7.163-16,16-16h240v64c0,17.673,14.327,32,32,32h64     V176z"/>
			<path d="M432,352c0,17.28-24.32,32-32,32s-32-14.72-32-32v-96h-32v96c0,35.36,38.72,64,64,64c25.28,0,64-28.64,64-64v-96h-32V352     z"/>
			<path d="M288,256h-64c-17.673,0-32,14.327-32,32v128h32v-48h64v48h32V288C320,270.327,305.673,256,288,256z M288,336h-64v-48h64     V336z"/>
			<rect x="480" y="256" width="32" height="160"/>
		</g>
	</g>
</g>
<g>
</g>
<g>
</g>
<g>
</g>
<g>
</g>
<g>
</g>
<g>
</g>
<g>
</g>
<g>
</g>
<g>
</g>
<g>
</g>
<g>
</g>
<g>
</g>
<g>
</g>
<g>
</g>
<g>
</g>
</svg>
