<?xml version="1.0" encoding="iso-8859-1"?>
<!-- Generator: Adobe Illustrator 19.0.0, SVG Export Plug-In . SVG Version: 6.00 Build 0)  -->
<svg xmlns="http://www.w3.org/2000/svg" xmlns:xlink="http://www.w3.org/1999/xlink" version="1.1" id="Capa_1" x="0px" y="0px" viewBox="0 0 512 512" style="enable-background:new 0 0 512 512;" xml:space="preserve">
<g>
	<g>
		<g>
			<path d="M56,464V48c0-8.837,7.163-16,16-16h240v64c0,17.673,14.327,32,32,32h64v96h32V112c0.025-4.253-1.645-8.341-4.64-11.36     l-96-96C336.341,1.645,332.253-0.024,328,0H72c-26.51,0-48,21.49-48,48v416c0,26.51,21.49,48,48,48h240v-32H72     C63.164,480,56,472.837,56,464z"/>
			<path d="M488,384v-32h-34.24c-1.503-5.614-3.764-10.997-6.72-16l20.32-20.32l-22.56-22.56l-20.8,20     c-5.003-2.956-10.386-5.217-16-6.72V272h-32v34.24c-5.614,1.503-10.996,3.764-16,6.72l-20.32-20.32l-22.56,22.56l20,20.8     c-2.956,5.003-5.217,10.386-6.72,16H296v32h34.24c1.503,5.614,3.764,10.996,6.72,16l-20.32,20.32l22.56,22.56l20.8-20     c5.004,2.956,10.386,5.217,16,6.72V464h32v-34.24c5.614-1.503,10.997-3.764,16-6.72l20.32,20.32l22.56-22.56l-20-20.8     c2.956-5.004,5.217-10.386,6.72-16H488z M392,400c-17.673,0-32-14.327-32-32c0-17.673,14.327-32,32-32c17.673,0,32,14.327,32,32     C424,385.673,409.673,400,392,400z"/>
		</g>
	</g>
</g>
<g>
</g>
<g>
</g>
<g>
</g>
<g>
</g>
<g>
</g>
<g>
</g>
<g>
</g>
<g>
</g>
<g>
</g>
<g>
</g>
<g>
</g>
<g>
</g>
<g>
</g>
<g>
</g>
<g>
</g>
</svg>
