<?xml version="1.0" encoding="iso-8859-1"?>
<!-- Generator: Adobe Illustrator 19.0.0, SVG Export Plug-In . SVG Version: 6.00 Build 0)  -->
<svg xmlns="http://www.w3.org/2000/svg" xmlns:xlink="http://www.w3.org/1999/xlink" version="1.1" id="Capa_1" x="0px" y="0px" viewBox="0 0 512 512" style="enable-background:new 0 0 512 512;" xml:space="preserve">
<g>
	<g>
		<g>
			<path d="M464,352H352v-32h96c0-17.673-14.327-32-32-32h-64c-17.673,0-32,14.327-32,32v32h-16c-8.837,0-16,7.163-16,16v128     c0,8.837,7.163,16,16,16h160c8.837,0,16-7.163,16-16V368C480,359.164,472.837,352,464,352z M448,480H320v-96h128V480z"/>
			<rect x="368" y="416" width="32" height="32"/>
			<path d="M64,464V48c0-8.837,7.163-16,16-16h240v64c0,17.673,14.327,32,32,32h64v112h32V112c0.025-4.253-1.645-8.341-4.64-11.36     l-96-96C344.341,1.645,340.253-0.024,336,0H80c-26.51,0-48,21.49-48,48v416c0,26.51,21.49,48,48,48h160v-32H80     C71.164,480,64,472.837,64,464z"/>
		</g>
	</g>
</g>
<g>
</g>
<g>
</g>
<g>
</g>
<g>
</g>
<g>
</g>
<g>
</g>
<g>
</g>
<g>
</g>
<g>
</g>
<g>
</g>
<g>
</g>
<g>
</g>
<g>
</g>
<g>
</g>
<g>
</g>
</svg>
