<?xml version="1.0" encoding="iso-8859-1"?>
<!-- Generator: Adobe Illustrator 19.0.0, SVG Export Plug-In . SVG Version: 6.00 Build 0)  -->
<svg xmlns="http://www.w3.org/2000/svg" xmlns:xlink="http://www.w3.org/1999/xlink" version="1.1" id="Capa_1" x="0px" y="0px" viewBox="0 0 512 512" style="enable-background:new 0 0 512 512;" xml:space="preserve">
<g>
	<g>
		<g>
			<path d="M464,224H336c-8.837,0-16,7.163-16,16v130.88c-5.131-1.863-10.542-2.837-16-2.88c-26.51,0-48,21.49-48,48     c0,26.51,21.49,48,48,48c26.51,0,48-21.49,48-48V256h96v82.88c-5.131-1.863-10.542-2.837-16-2.88c-26.51,0-48,21.49-48,48     c0,26.51,21.49,48,48,48c26.51,0,48-21.49,48-48V240C480,231.164,472.837,224,464,224z M304,432c-8.837,0-16-7.163-16-16     s7.163-16,16-16s16,7.163,16,16S312.837,432,304,432z M432,400c-8.837,0-16-7.163-16-16s7.163-16,16-16s16,7.163,16,16     S440.837,400,432,400z"/>
			<path d="M64,464V48c0-8.837,7.163-16,16-16h240v64c0,17.673,14.327,32,32,32h64v48h32v-64c0.025-4.253-1.645-8.341-4.64-11.36     l-96-96C344.341,1.645,340.253-0.024,336,0H80c-26.51,0-48,21.49-48,48v416c0,26.51,21.49,48,48,48h160v-32H80     C71.164,480,64,472.837,64,464z"/>
		</g>
	</g>
</g>
<g>
</g>
<g>
</g>
<g>
</g>
<g>
</g>
<g>
</g>
<g>
</g>
<g>
</g>
<g>
</g>
<g>
</g>
<g>
</g>
<g>
</g>
<g>
</g>
<g>
</g>
<g>
</g>
<g>
</g>
</svg>
