<?xml version="1.0" encoding="iso-8859-1"?>
<!-- Generator: Adobe Illustrator 19.0.0, SVG Export Plug-In . SVG Version: 6.00 Build 0)  -->
<svg xmlns="http://www.w3.org/2000/svg" xmlns:xlink="http://www.w3.org/1999/xlink" version="1.1" id="Capa_1" x="0px" y="0px" viewBox="0 0 512 512" style="enable-background:new 0 0 512 512;" xml:space="preserve">
<g>
	<g>
		<g>
			<path d="M32,464V48c0-8.837,7.163-16,16-16h240v64c0,17.673,14.327,32,32,32h64v48h32v-64c0.025-4.253-1.645-8.341-4.64-11.36     l-96-96C312.341,1.645,308.253-0.024,304,0H48C21.49,0,0,21.491,0,48v416c0,26.51,21.49,48,48,48h128v-32H48     C39.164,480,32,472.837,32,464z"/>
			<path d="M480,224H256c-17.673,0-32,14.327-32,32v224c0,17.673,14.327,32,32,32h224c17.673,0,32-14.327,32-32V256     C512,238.327,497.673,224,480,224z M288,480h-32v-32h32V480z M288,416h-32v-32h32V416z M288,352h-32v-32h32V352z M288,288h-32     v-32h32V288z M416,480h-96v-96h96V480z M416,352h-96v-96h96V352z M480,480h-32v-32h32V480z M480,416h-32v-32h32V416z M480,352     h-32v-32h32V352z M480,288h-32v-32h32V288z"/>
		</g>
	</g>
</g>
<g>
</g>
<g>
</g>
<g>
</g>
<g>
</g>
<g>
</g>
<g>
</g>
<g>
</g>
<g>
</g>
<g>
</g>
<g>
</g>
<g>
</g>
<g>
</g>
<g>
</g>
<g>
</g>
<g>
</g>
</svg>
