<?xml version="1.0" encoding="iso-8859-1"?>
<!-- Generator: Adobe Illustrator 19.0.0, SVG Export Plug-In . SVG Version: 6.00 Build 0)  -->
<svg xmlns="http://www.w3.org/2000/svg" xmlns:xlink="http://www.w3.org/1999/xlink" version="1.1" id="Capa_1" x="0px" y="0px" viewBox="0 0 512 512" style="enable-background:new 0 0 512 512;" xml:space="preserve">
<g>
	<g>
		<g>
			<path d="M459.36,100.64l-96-96C360.341,1.645,356.253-0.024,352,0H96c-26.51,0-48,21.49-48,48v416c0,26.51,21.49,48,48,48h320     c26.51,0,48-21.49,48-48V112C464.025,107.747,462.355,103.66,459.36,100.64z M432,464c0,8.837-7.163,16-16,16H96     c-8.837,0-16-7.163-16-16V48c0-8.837,7.163-16,16-16h240v64c0,17.673,14.327,32,32,32h64V464z"/>
			<path d="M331.52,224l-12.32-37.12c-2.201-6.517-8.321-10.898-15.2-10.88h-96c-6.879-0.018-12.999,4.363-15.2,10.88L180.48,224     H144c-8.837,0-16,7.163-16,16v160c0,8.837,7.163,16,16,16h224c8.837,0,16-7.163,16-16V240c0-8.837-7.163-16-16-16H331.52z      M352,384H160V256h32c6.879,0.018,12.999-4.363,15.2-10.88L219.52,208h72.96l12.32,37.12c2.201,6.517,8.321,10.898,15.2,10.88h32     V384z"/>
			<path d="M256,256c-26.51,0-48,21.49-48,48c0,26.51,21.49,48,48,48c26.51,0,48-21.49,48-48C304,277.491,282.51,256,256,256z      M256,320c-8.837,0-16-7.163-16-16s7.163-16,16-16s16,7.163,16,16S264.837,320,256,320z"/>
		</g>
	</g>
</g>
<g>
</g>
<g>
</g>
<g>
</g>
<g>
</g>
<g>
</g>
<g>
</g>
<g>
</g>
<g>
</g>
<g>
</g>
<g>
</g>
<g>
</g>
<g>
</g>
<g>
</g>
<g>
</g>
<g>
</g>
</svg>
