<?xml version="1.0" encoding="iso-8859-1"?>
<!-- Generator: Adobe Illustrator 19.0.0, SVG Export Plug-In . SVG Version: 6.00 Build 0)  -->
<svg xmlns="http://www.w3.org/2000/svg" xmlns:xlink="http://www.w3.org/1999/xlink" version="1.1" id="Capa_1" x="0px" y="0px" viewBox="0 0 512 512" style="enable-background:new 0 0 512 512;" xml:space="preserve">
<g>
	<g>
		<g>
			<path d="M459.36,100.64l-96-96C360.341,1.645,356.253-0.024,352,0H96c-26.51,0-48,21.49-48,48v416c0,26.51,21.49,48,48,48h320     c26.51,0,48-21.49,48-48V112C464.025,107.747,462.355,103.66,459.36,100.64z M432,464c0,8.837-7.163,16-16,16H96     c-8.837,0-16-7.163-16-16V48c0-8.837,7.163-16,16-16h240v64c0,17.673,14.327,32,32,32h64V464z"/>
			<path d="M272,193.44V160h-32v33.44c-40.219,6.835-71.725,38.341-78.56,78.56H128v32h33.44     c6.835,40.219,38.341,71.725,78.56,78.56V416h32v-33.44c40.219-6.835,71.725-38.341,78.56-78.56H384v-32h-33.44     C343.725,231.782,312.219,200.275,272,193.44z M317.76,304c-5.85,22.41-23.35,39.91-45.76,45.76V320h-32v29.76     c-22.41-5.85-39.91-23.35-45.76-45.76H224v-32h-29.76c5.85-22.41,23.35-39.91,45.76-45.76V256h32v-29.76     c22.41,5.85,39.91,23.35,45.76,45.76H288v32H317.76z"/>
		</g>
	</g>
</g>
<g>
</g>
<g>
</g>
<g>
</g>
<g>
</g>
<g>
</g>
<g>
</g>
<g>
</g>
<g>
</g>
<g>
</g>
<g>
</g>
<g>
</g>
<g>
</g>
<g>
</g>
<g>
</g>
<g>
</g>
</svg>
