<?xml version="1.0" encoding="iso-8859-1"?>
<!-- Generator: Adobe Illustrator 19.0.0, SVG Export Plug-In . SVG Version: 6.00 Build 0)  -->
<svg xmlns="http://www.w3.org/2000/svg" xmlns:xlink="http://www.w3.org/1999/xlink" version="1.1" id="Capa_1" x="0px" y="0px" viewBox="0 0 512 512" style="enable-background:new 0 0 512 512;" xml:space="preserve">
<g>
	<g>
		<g>
			<path d="M459.36,100.64l-96-96C360.341,1.645,356.253-0.024,352,0H96c-26.51,0-48,21.49-48,48v416c0,26.51,21.49,48,48,48h320     c26.51,0,48-21.49,48-48V112C464.025,107.747,462.355,103.66,459.36,100.64z M432,464c0,8.837-7.163,16-16,16H96     c-8.837,0-16-7.163-16-16V48c0-8.837,7.163-16,16-16h240v64c0,17.673,14.327,32,32,32h64V464z"/>
			<path d="M310.88,256l20.32-20.32l-22.56-22.56l-20.64,20c-5.003-2.956-10.386-5.217-16-6.72V192h-32v34.24     c-5.614,1.503-10.997,3.764-16,6.72l-20.32-20.32l-22.56,22.56l20,20.8c-2.956,5.003-5.217,10.386-6.72,16H160v32h34.24     c1.503,5.614,3.764,10.996,6.72,16l-20.32,20.32l22.56,22.56l20.8-20c5.003,2.956,10.386,5.217,16,6.72V384h32v-34.24     c5.614-1.503,10.997-3.764,16-6.72l20.32,20.32l22.56-22.56l-20-20.8c2.956-5.004,5.217-10.386,6.72-16H352v-32h-34.24     C316.206,266.378,313.892,260.995,310.88,256z M256,320c-17.673,0-32-14.327-32-32c0-17.673,14.327-32,32-32     c17.673,0,32,14.327,32,32C288,305.673,273.673,320,256,320z"/>
		</g>
	</g>
</g>
<g>
</g>
<g>
</g>
<g>
</g>
<g>
</g>
<g>
</g>
<g>
</g>
<g>
</g>
<g>
</g>
<g>
</g>
<g>
</g>
<g>
</g>
<g>
</g>
<g>
</g>
<g>
</g>
<g>
</g>
</svg>
