<?xml version="1.0" encoding="iso-8859-1"?>
<!-- Generator: Adobe Illustrator 19.0.0, SVG Export Plug-In . SVG Version: 6.00 Build 0)  -->
<svg xmlns="http://www.w3.org/2000/svg" xmlns:xlink="http://www.w3.org/1999/xlink" version="1.1" id="Capa_1" x="0px" y="0px" viewBox="0 0 512 512" style="enable-background:new 0 0 512 512;" xml:space="preserve">
<g>
	<g>
		<g>
			<path d="M459.36,100.64l-96-96C360.341,1.645,356.253-0.024,352,0H96c-26.51,0-48,21.49-48,48v416c0,26.51,21.49,48,48,48h320     c26.51,0,48-21.49,48-48V112C464.025,107.747,462.355,103.66,459.36,100.64z M96,480c-8.837,0-16-7.163-16-16v-73.44l96-96     L361.44,480H96z M432,464c0,8.837-7.163,16-16,16h-9.44l-112-112L336,326.56l96,96V464z M432,377.44l-84.64-84.64     c-6.241-6.204-16.319-6.204-22.56,0L272,345.44l-84.64-84.64c-6.241-6.204-16.319-6.204-22.56,0L80,345.44V48     c0-8.837,7.163-16,16-16h240v64c0,17.673,14.327,32,32,32h64V377.44z"/>
			<path d="M208,80c-35.346,0-64,28.654-64,64c0,35.346,28.654,64,64,64c35.346,0,64-28.654,64-64C272,108.654,243.346,80,208,80z      M208,176c-17.673,0-32-14.327-32-32s14.327-32,32-32s32,14.327,32,32S225.673,176,208,176z"/>
		</g>
	</g>
</g>
<g>
</g>
<g>
</g>
<g>
</g>
<g>
</g>
<g>
</g>
<g>
</g>
<g>
</g>
<g>
</g>
<g>
</g>
<g>
</g>
<g>
</g>
<g>
</g>
<g>
</g>
<g>
</g>
<g>
</g>
</svg>
