<?xml version="1.0" encoding="iso-8859-1"?>
<!-- Generator: Adobe Illustrator 19.0.0, SVG Export Plug-In . SVG Version: 6.00 Build 0)  -->
<svg xmlns="http://www.w3.org/2000/svg" xmlns:xlink="http://www.w3.org/1999/xlink" version="1.1" id="Capa_1" x="0px" y="0px" viewBox="0 0 512 512" style="enable-background:new 0 0 512 512;" xml:space="preserve">
<g>
	<g>
		<g>
			<path d="M384,128v48h32v-64c0.025-4.253-1.645-8.341-4.64-11.36l-96-96C312.341,1.645,308.253-0.024,304,0H48     C21.49,0,0,21.491,0,48v416c0,26.51,21.49,48,48,48h112v-32H48c-8.837,0-16-7.163-16-16V48c0-8.837,7.163-16,16-16h240v64     c0,17.673,14.327,32,32,32H384z"/>
			<path d="M448,384V256h-32v144c0,8.837,7.163,16,16,16h80v-32H448z"/>
			<path d="M336,256h-32v144c0,8.837,7.163,16,16,16h80v-32h-64V256z"/>
			<path d="M256,256h-64c-8.837,0-16,7.163-16,16v128c0,8.837,7.163,16,16,16h64c17.673,0,32-14.327,32-32v-96     C288,270.327,273.673,256,256,256z M256,384h-48v-96h48V384z"/>
		</g>
	</g>
</g>
<g>
</g>
<g>
</g>
<g>
</g>
<g>
</g>
<g>
</g>
<g>
</g>
<g>
</g>
<g>
</g>
<g>
</g>
<g>
</g>
<g>
</g>
<g>
</g>
<g>
</g>
<g>
</g>
<g>
</g>
</svg>
